<svg xmlns="http://www.w3.org/2000/svg" viewBox="0 0 111.2 166" style="enable-background:new 0 0 111.2 166" xml:space="preserve"><path d="M95.7 119.8C67.8 98.5 70.9 80.1 70.5 72.5h17c2-3.7 3-7.1 3-11.4L71.2 48.4c6.7-4.9 11.1-12.7 11.1-21.6C82.3 15.6 75.4 6 65.6 2c-3.1-1.2-25 70.5-25 70.5-.1 1.7-.1 3.8-.1 6.4C40.5 86 58 85 57.1 91.2c-1.4 9.4-1.7 16.6-9.8 39.2-5.5 15.3-42 0-44.6 7.5C1 143.1 0 149 0 155.3c0 .7 1.5 10.8 55.6 10.8s55.6-10.1 55.6-10.8c0-15.4-5.7-28-15.5-35.5z" style="fill:#5d9948"/><path d="M54.6 129.4c3-13.7 5.7-28.3 7.3-37 2-10.9-14.5-12.9-21.3-13.9-.3 9.3-2.9 24.4-25.1 41.3-6 4.6-10.4 11.1-13 18.9 6 2.9 14 4.7 26.3 4.7 7.9 0 22.5 1 25.8-14zm11.6-56.9c2.6-6.8 2.3-11.4 2.3-11.4L57.6 48.4c11.6-5 18.6-14.3 18.6-25.1 0-8.7-4.1-16.4-10.5-21.2-3.1-1.3-6.5-2-10.1-2C40.8 0 28.8 12 28.8 26.7c0 8.9 4.4 16.8 11.1 21.6L20.6 61.1c0 4.3 1 7.7 3 11.4h42.6z" style="fill:#81b64c"/><path d="M54.1 5.4C69.5 7.8 47 25.7 39.9 24.9c-6.8-.8-.3-21.7 14.2-19.5z" style="fill:#b2e068"/></svg>