<svg xmlns="http://www.w3.org/2000/svg" viewBox="0 0 167.548 167.548" style="enable-background:new 0 0 167.548 167.548" xml:space="preserve"><path d="M134.067 146.82H33.495a2.711 2.711 0 0 0-2.7 2.7c0 1.487 1.216 2.7 2.7 2.7h100.578a2.705 2.705 0 0 0 2.699-2.7c0-1.481-1.207-2.7-2.705-2.7zm32.4-99.185a2.695 2.695 0 0 0-3.186-.039l-43.464 30.965a2.694 2.694 0 0 0-.949 3.18 8.718 8.718 0 0 1 .628 3.201c0 4.835-3.939 8.775-8.775 8.775-4.841 0-8.774-3.939-8.774-8.775 0-4.627 3.644-8.456 8.295-8.709a2.738 2.738 0 0 0 2.178-1.318 2.703 2.703 0 0 0 .116-2.537L86.21 16.864a2.698 2.698 0 0 0-2.441-1.537 2.692 2.692 0 0 0-2.441 1.537L54.981 72.426a2.693 2.693 0 0 0 .097 2.489 2.694 2.694 0 0 0 2.112 1.35c4.556.4 7.986 4.142 7.986 8.677 0 4.835-3.937 8.775-8.774 8.775-4.839 0-8.775-3.939-8.775-8.775 0-.868.166-1.788.512-2.805a2.69 2.69 0 0 0-.96-3.043L4.304 47.619a2.71 2.71 0 0 0-3.209.005 2.695 2.695 0 0 0-.944 3.056l30.958 89.147a2.69 2.69 0 0 0 2.547 1.813h100.222a2.7 2.7 0 0 0 2.552-1.813l30.955-89.147c.411-1.113.026-2.338-.918-3.045zm-34.494 88.607H35.596L8.108 57.111l34.399 25.252a13.3 13.3 0 0 0-.264 2.584c0 7.815 6.359 14.175 14.175 14.175 7.812 0 14.175-6.359 14.175-14.175a14.029 14.029 0 0 0-9.273-13.255l22.465-47.363 22.396 47.239c-5.627 1.898-9.629 7.193-9.629 13.384 0 7.815 6.359 14.175 14.175 14.175 7.81 0 14.175-6.359 14.175-14.175 0-1.036-.121-2.077-.364-3.103l34.984-24.922-27.549 79.315z" fill="#15803d"/><path d="M84.94 40.777a2.716 2.716 0 0 0-3.597 1.279L69.254 67.561a2.691 2.691 0 0 0 .593 3.122c3.952 3.71 6.146 8.765 6.146 14.259 0 1.487 1.21 2.7 2.7 2.7s2.7-1.213 2.7-2.7c0-6.323-2.272-12.208-6.454-16.767l11.287-23.791a2.713 2.713 0 0 0-1.286-3.607z" fill="#15803d"/></svg>